<svg width="307" height="64" viewBox="0 0 307 64" fill="none" xmlns="http://www.w3.org/2000/svg">
<path d="M33.1136 23C32.9621 21.1061 32.2519 19.6288 30.983 18.5682C29.733 17.5076 27.8295 16.9773 25.2727 16.9773C23.6439 16.9773 22.3087 17.1761 21.267 17.5739C20.2443 17.9527 19.4867 18.4735 18.9943 19.1364C18.5019 19.7992 18.2462 20.5568 18.2273 21.4091C18.1894 22.1098 18.3125 22.7443 18.5966 23.3125C18.8996 23.8617 19.3731 24.3636 20.017 24.8182C20.661 25.2538 21.4848 25.6515 22.4886 26.0114C23.4924 26.3712 24.6856 26.6932 26.0682 26.9773L30.8409 28C34.0606 28.6818 36.8163 29.5814 39.108 30.6989C41.3996 31.8163 43.2746 33.1326 44.733 34.6477C46.1913 36.1439 47.2614 37.8295 47.9432 39.7045C48.6439 41.5795 49.0038 43.625 49.0227 45.8409C49.0038 49.6667 48.0473 52.9053 46.1534 55.5568C44.2595 58.2083 41.5511 60.2254 38.0284 61.608C34.5246 62.9905 30.3106 63.6818 25.3864 63.6818C20.3295 63.6818 15.9167 62.9337 12.1477 61.4375C8.39773 59.9413 5.48106 57.6402 3.39773 54.5341C1.33333 51.4091 0.291667 47.4129 0.272727 42.5455H15.2727C15.3674 44.3258 15.8125 45.822 16.608 47.0341C17.4034 48.2462 18.5208 49.1648 19.9602 49.7898C21.4186 50.4148 23.1515 50.7273 25.1591 50.7273C26.8447 50.7273 28.2557 50.5189 29.392 50.1023C30.5284 49.6856 31.3902 49.108 31.9773 48.3693C32.5644 47.6307 32.8674 46.7879 32.8864 45.8409C32.8674 44.9508 32.5739 44.1742 32.0057 43.5114C31.4564 42.8295 30.5473 42.2235 29.2784 41.6932C28.0095 41.1439 26.2955 40.6326 24.1364 40.1591L18.3409 38.9091C13.1894 37.7917 9.12689 35.9261 6.15341 33.3125C3.19886 30.6799 1.73106 27.0909 1.75 22.5455C1.73106 18.8523 2.71591 15.6231 4.70455 12.858C6.71212 10.0739 9.48674 7.9053 13.0284 6.35227C16.589 4.79924 20.6705 4.02273 25.2727 4.02273C29.9697 4.02273 34.0322 4.80871 37.4602 6.38068C40.8883 7.95265 43.5303 10.1686 45.3864 13.0284C47.2614 15.8693 48.2083 19.1932 48.2273 23H33.1136Z" fill="#6B2F97"/>
<path d="M69.3494 52.6591L69.4631 34.0227H71.5085L82.0767 19.3636H99.6903L81.9631 42.2045H77.5312L69.3494 52.6591ZM55.2585 63V4.81818H70.9403V63H55.2585ZM82.1903 63L72.1903 45.7273L82.4176 34.5909L100.145 63H82.1903Z" fill="#FF6565"/>
<path d="M103.774 63V19.3636H119.456V63H103.774ZM111.615 14.8182C109.494 14.8182 107.676 14.1174 106.161 12.7159C104.645 11.3144 103.888 9.62879 103.888 7.65909C103.888 5.68939 104.645 4.00379 106.161 2.60227C107.676 1.20076 109.494 0.5 111.615 0.5C113.755 0.5 115.573 1.20076 117.07 2.60227C118.585 4.00379 119.342 5.68939 119.342 7.65909C119.342 9.62879 118.585 11.3144 117.07 12.7159C115.573 14.1174 113.755 14.8182 111.615 14.8182Z" fill="#FFF385"/>
<path d="M153.469 19.3636V30.7273H124.719V19.3636H153.469ZM130.287 8.90909H145.969V48.9659C145.969 49.572 146.073 50.0833 146.281 50.5C146.49 50.8977 146.812 51.2008 147.247 51.4091C147.683 51.5985 148.241 51.6932 148.923 51.6932C149.397 51.6932 149.946 51.6364 150.571 51.5227C151.215 51.4091 151.688 51.3144 151.991 51.2386L154.264 62.2614C153.563 62.4697 152.56 62.7254 151.253 63.0284C149.965 63.3314 148.431 63.5303 146.651 63.625C143.052 63.8144 140.031 63.4451 137.588 62.517C135.145 61.5701 133.308 60.0833 132.077 58.0568C130.846 56.0303 130.249 53.4924 130.287 50.4432V8.90909ZM185.891 19.3636V30.7273H157.141V19.3636H185.891ZM162.709 8.90909H178.391V48.9659C178.391 49.572 178.495 50.0833 178.703 50.5C178.911 50.8977 179.233 51.2008 179.669 51.4091C180.105 51.5985 180.663 51.6932 181.345 51.6932C181.819 51.6932 182.368 51.6364 182.993 51.5227C183.637 51.4091 184.11 51.3144 184.413 51.2386L186.686 62.2614C185.985 62.4697 184.982 62.7254 183.675 63.0284C182.387 63.3314 180.853 63.5303 179.072 63.625C175.474 63.8144 172.453 63.4451 170.01 62.517C167.567 61.5701 165.73 60.0833 164.499 58.0568C163.268 56.0303 162.671 53.4924 162.709 50.4432V8.90909Z" fill="#AFFF5E"/>
<path d="M208.909 4.81818V63H193.227V4.81818H208.909Z" fill="#FF65C1"/>
<path d="M237.808 63.7955C233.149 63.7955 229.134 62.9053 225.763 61.125C222.411 59.3258 219.825 56.75 218.007 53.3977C216.208 50.0265 215.308 45.9924 215.308 41.2955C215.308 36.7879 216.217 32.8485 218.036 29.4773C219.854 26.1061 222.42 23.483 225.734 21.608C229.049 19.733 232.96 18.7955 237.467 18.7955C240.763 18.7955 243.746 19.3068 246.416 20.3295C249.087 21.3523 251.369 22.839 253.263 24.7898C255.157 26.7216 256.615 29.0701 257.638 31.8352C258.661 34.6004 259.172 37.7159 259.172 41.1818V44.8182H220.195V36.1818H244.74C244.721 34.9318 244.399 33.8333 243.774 32.8864C243.168 31.9205 242.344 31.1723 241.303 30.642C240.28 30.0928 239.115 29.8182 237.808 29.8182C236.539 29.8182 235.375 30.0928 234.314 30.642C233.253 31.1723 232.401 31.911 231.757 32.858C231.132 33.8049 230.801 34.9129 230.763 36.1818V45.5C230.763 46.9015 231.056 48.1515 231.643 49.25C232.231 50.3485 233.073 51.2102 234.172 51.8352C235.27 52.4602 236.596 52.7727 238.149 52.7727C239.229 52.7727 240.214 52.6212 241.104 52.3182C242.013 52.0152 242.789 51.5795 243.433 51.0114C244.077 50.4242 244.551 49.7235 244.854 48.9091H259.172C258.679 51.9394 257.515 54.572 255.678 56.8068C253.84 59.0227 251.407 60.7462 248.376 61.9773C245.365 63.1894 241.842 63.7955 237.808 63.7955Z" fill="#87DBFF"/>
<path d="M305.457 33.5682H291.026C290.95 32.678 290.637 31.911 290.088 31.267C289.539 30.6231 288.829 30.1307 287.957 29.7898C287.105 29.4299 286.158 29.25 285.116 29.25C283.772 29.25 282.616 29.4962 281.651 29.9886C280.685 30.4811 280.211 31.1818 280.23 32.0909C280.211 32.7348 280.486 33.3314 281.054 33.8807C281.641 34.4299 282.768 34.8561 284.435 35.1591L293.298 36.75C297.768 37.5644 301.092 38.9375 303.27 40.8693C305.467 42.7822 306.575 45.3485 306.594 48.5682C306.575 51.6742 305.647 54.3731 303.81 56.6648C301.991 58.9375 299.501 60.6989 296.338 61.9489C293.194 63.1799 289.605 63.7955 285.571 63.7955C278.904 63.7955 273.687 62.4318 269.918 59.7045C266.168 56.9773 264.075 53.3788 263.639 48.9091H279.207C279.416 50.2917 280.098 51.3617 281.253 52.1193C282.427 52.858 283.904 53.2273 285.685 53.2273C287.124 53.2273 288.308 52.9811 289.236 52.4886C290.183 51.9962 290.666 51.2955 290.685 50.3864C290.666 49.553 290.249 48.8902 289.435 48.3977C288.639 47.9053 287.389 47.5076 285.685 47.2045L277.957 45.8409C273.507 45.0644 270.173 43.5871 267.957 41.4091C265.741 39.2311 264.643 36.428 264.662 33C264.643 29.9697 265.438 27.4034 267.048 25.3011C268.677 23.1799 270.997 21.5701 274.009 20.4716C277.039 19.3542 280.628 18.7955 284.776 18.7955C291.082 18.7955 296.054 20.1023 299.69 22.7159C303.346 25.3295 305.268 28.947 305.457 33.5682Z" fill="#FFD28E"/>
</svg>
